<svg width="32" height="29" viewBox="0 0 32 29" fill="none" xmlns="http://www.w3.org/2000/svg">
<path d="M5.3335 0.666748H27.0002C28.3262 0.666748 29.598 1.19353 30.5357 2.13121C31.4734 3.0689 32.0002 4.34067 32.0002 5.66675V17.3334C32.0002 18.6595 31.4734 19.9313 30.5357 20.8689C29.598 21.8066 28.3262 22.3334 27.0002 22.3334H19.4868L20.3335 27.3334H22.0002V29.0001H10.3335V27.3334H12.0002L12.8468 22.3334H5.3335C4.00741 22.3334 2.73564 21.8066 1.79796 20.8689C0.86028 19.9313 0.333496 18.6595 0.333496 17.3334V5.66675C0.333496 4.34067 0.86028 3.0689 1.79796 2.13121C2.73564 1.19353 4.00741 0.666748 5.3335 0.666748ZM14.5135 22.3334L13.6668 27.3334H18.6668L17.8202 22.3334H14.5135ZM5.3335 2.33341C4.44944 2.33341 3.60159 2.6846 2.97647 3.30973C2.35135 3.93485 2.00016 4.78269 2.00016 5.66675V17.3334C2.00016 18.2175 2.35135 19.0653 2.97647 19.6904C3.60159 20.3156 4.44944 20.6667 5.3335 20.6667H27.0002C27.8842 20.6667 28.7321 20.3156 29.3572 19.6904C29.9823 19.0653 30.3335 18.2175 30.3335 17.3334V5.66675C30.3335 4.78269 29.9823 3.93485 29.3572 3.30973C28.7321 2.6846 27.8842 2.33341 27.0002 2.33341H5.3335Z" fill="black"/>
</svg>
