<svg width="26" height="26" viewBox="0 0 26 26" fill="none" xmlns="http://www.w3.org/2000/svg">
<path d="M13.1665 15.3333C20.0698 15.3333 25.6665 17.9449 25.6665 21.1666V25.3333H0.666504V21.1666C0.666504 17.9449 6.26317 15.3333 13.1665 15.3333ZM23.9998 21.1666C23.9998 18.8666 19.1498 16.9999 13.1665 16.9999C7.18317 16.9999 2.33317 18.8666 2.33317 21.1666V23.6666H23.9998V21.1666ZM13.1665 0.333252C14.7136 0.333252 16.1973 0.947834 17.2913 2.0418C18.3853 3.13576 18.9998 4.61949 18.9998 6.16658C18.9998 7.71368 18.3853 9.19741 17.2913 10.2914C16.1973 11.3853 14.7136 11.9999 13.1665 11.9999C11.6194 11.9999 10.1357 11.3853 9.04171 10.2914C7.94775 9.19741 7.33317 7.71368 7.33317 6.16658C7.33317 4.61949 7.94775 3.13576 9.04171 2.0418C10.1357 0.947834 11.6194 0.333252 13.1665 0.333252ZM13.1665 1.99992C12.0614 1.99992 11.0016 2.43891 10.2202 3.22031C9.43882 4.00171 8.99984 5.06152 8.99984 6.16658C8.99984 7.27165 9.43882 8.33146 10.2202 9.11286C11.0016 9.89427 12.0614 10.3333 13.1665 10.3333C14.2716 10.3333 15.3314 9.89427 16.1128 9.11286C16.8942 8.33146 17.3332 7.27165 17.3332 6.16658C17.3332 5.06152 16.8942 4.00171 16.1128 3.22031C15.3314 2.43891 14.2716 1.99992 13.1665 1.99992Z" fill="black"/>
</svg>
