<svg width="36" height="32" viewBox="0 0 36 32" fill="none" xmlns="http://www.w3.org/2000/svg">
<path d="M2.33317 13.6666H7.33317C7.7752 13.6666 8.19912 13.8422 8.51168 14.1548C8.82424 14.4673 8.99984 14.8912 8.99984 15.3333V30.3333C8.99984 30.7753 8.82424 31.1992 8.51168 31.5118C8.19912 31.8243 7.7752 31.9999 7.33317 31.9999H2.33317C1.89114 31.9999 1.46722 31.8243 1.15466 31.5118C0.842099 31.1992 0.666504 30.7753 0.666504 30.3333V15.3333C0.666504 14.8912 0.842099 14.4673 1.15466 14.1548C1.46722 13.8422 1.89114 13.6666 2.33317 13.6666ZM2.33317 15.3333V30.3333H7.33317V15.3333H2.33317ZM28.5265 28.7083L33.5282 20.3749C33.8282 19.8749 33.9998 19.2916 33.9998 18.6666V16.9999C33.9998 16.1159 33.6486 15.268 33.0235 14.6429C32.3984 14.0178 31.5506 13.6666 30.6665 13.6666H21.3165L23.7448 4.59994L23.7532 4.56994C23.8291 4.28744 23.8293 3.98995 23.7538 3.70734C23.6784 3.42473 23.5298 3.16696 23.3232 2.95994L13.3082 12.9749C12.9983 13.2844 12.7526 13.6521 12.5853 14.0568C12.418 14.4615 12.3323 14.8953 12.3332 15.3333V26.9999C12.3332 27.884 12.6844 28.7318 13.3095 29.357C13.9346 29.9821 14.7824 30.3333 15.6665 30.3333H25.6665C26.8832 30.3333 27.9465 29.6833 28.5265 28.7083ZM35.6665 18.6666C35.6665 19.6566 35.3798 20.5783 34.8832 21.3533L30.0398 29.4249C29.607 30.2054 28.9732 30.8557 28.2042 31.3085C27.4351 31.7613 26.5589 32.0001 25.6665 31.9999H15.6665C14.3404 31.9999 13.0687 31.4732 12.131 30.5355C11.1933 29.5978 10.6665 28.326 10.6665 26.9999V15.3333C10.6665 13.9533 11.2248 12.7049 12.1282 11.7999L23.3232 0.603271L24.5015 1.7816C24.9232 2.20327 25.224 2.73032 25.3726 3.30782C25.5212 3.88532 25.5122 4.49211 25.3465 5.06494L23.4882 11.9999H30.6665C31.9926 11.9999 33.2644 12.5267 34.202 13.4644C35.1397 14.4021 35.6665 15.6739 35.6665 16.9999V18.6666Z" fill="black"/>
</svg>
