<svg width="17" height="21" viewBox="0 0 17 21" fill="none" xmlns="http://www.w3.org/2000/svg">
<path d="M12 21L3 21C2.20435 21 1.44129 20.6839 0.878679 20.1213C0.316071 19.5587 1.9271e-07 18.7956 2.62268e-07 18L1.39876e-06 5C1.46832e-06 4.20435 0.316072 3.44129 0.878681 2.87868C1.44129 2.31607 2.20435 2 3 2L12 2C12.7957 2 13.5587 2.31607 14.1213 2.87868C14.6839 3.44129 15 4.20435 15 5L15 18C15 18.7956 14.6839 19.5587 14.1213 20.1213C13.5587 20.6839 12.7956 21 12 21ZM12 20C12.5304 20 13.0391 19.7893 13.4142 19.4142C13.7893 19.0391 14 18.5304 14 18L14 5C14 4.46957 13.7893 3.96086 13.4142 3.58579C13.0391 3.21071 12.5304 3 12 3L3 3C2.46957 3 1.96086 3.21071 1.58579 3.58579C1.21072 3.96086 1 4.46956 1 5L1 18C1 18.5304 1.21071 19.0391 1.58579 19.4142C1.96086 19.7893 2.46957 20 3 20L6 20L9 20L12 20ZM12 -4.37114e-07C13.3261 -3.21184e-07 14.5979 0.526785 15.5355 1.46447C16.4732 2.40215 17 3.67392 17 5L17 17L16 17L16 5C16 3.93913 15.5786 2.92172 14.8284 2.17157C14.0783 1.42143 13.0609 1 12 1L4 0.999999L4 -1.1365e-06L12 -4.37114e-07Z" fill="black"/>
</svg>
