<svg width="18" height="16" viewBox="0 0 18 16" fill="none" xmlns="http://www.w3.org/2000/svg">
<path d="M16.6674 0.00163822C16.4451 0.017643 16.2269 0.0692518 16.0213 0.154451H16.0186C15.8212 0.231886 14.8829 0.622484 13.4565 1.21455L8.34466 3.34503C4.67666 4.87316 1.07099 6.37799 1.07099 6.37799L1.11392 6.36154C1.11392 6.36154 0.865328 6.4424 0.605652 6.61852C0.445227 6.71954 0.307181 6.85172 0.199867 7.00706C0.0724531 7.19208 -0.030032 7.47509 0.00805369 7.7677C0.0703757 8.26246 0.39445 8.55917 0.627119 8.72295C0.862558 8.88878 1.08692 8.96622 1.08692 8.96622H1.09246L4.47377 10.0935C4.62542 10.5752 5.50416 13.4341 5.71536 14.0927C5.84001 14.486 5.96119 14.732 6.11284 14.9198C6.18624 15.0157 6.27211 15.0959 6.37529 15.1603C6.42892 15.1912 6.48612 15.2156 6.54563 15.2329L6.51101 15.2247C6.5214 15.2274 6.52971 15.2357 6.53732 15.2384C6.56502 15.2459 6.58372 15.2487 6.61903 15.2542C7.15431 15.4145 7.58433 15.0856 7.58433 15.0856L7.60857 15.0664L9.60495 13.2676L12.9509 15.8079L13.0271 15.8401C13.7244 16.143 14.4308 15.9744 14.804 15.677C15.18 15.3775 15.3261 14.9945 15.3261 14.9945L15.3503 14.9328L17.936 1.82443C18.0094 1.50099 18.0281 1.1981 17.9471 0.904127C17.8635 0.606604 17.6706 0.350715 17.4063 0.186658C17.1843 0.0531115 16.9269 -0.0113485 16.6674 0.00163822ZM16.5975 1.40642C16.5947 1.44959 16.603 1.4448 16.5836 1.52771V1.53525L14.0222 14.5072C14.0111 14.5257 13.9924 14.5662 13.9412 14.6066C13.8872 14.6491 13.8442 14.6758 13.6192 14.5874L9.5267 11.4825L7.0546 13.7123L7.57395 10.4299L14.2604 4.26259C14.536 4.00904 14.4439 3.95559 14.4439 3.95559C14.4633 3.64448 14.0277 3.86445 14.0277 3.86445L5.59626 9.03337L5.59349 9.01967L1.55225 7.67313V7.67039L1.54187 7.66833C1.54895 7.66601 1.55589 7.66326 1.56264 7.66011L1.5848 7.64915L1.60627 7.64161C1.60627 7.64161 5.21471 6.13678 8.88271 4.60865C10.7191 3.84321 12.5694 3.07229 13.9924 2.47749C15.4154 1.88611 16.4673 1.45234 16.5268 1.42904C16.5836 1.40711 16.5566 1.40711 16.5975 1.40711V1.40642Z" fill="#E5E5E5"/>
</svg>
