<svg width="32" height="32" viewBox="0 0 32 32" fill="none" xmlns="http://www.w3.org/2000/svg">
<path d="M31.2 13.4L29.8 12.7C29.7 12.7 29.6 12.6 29.6 12.5V12.3C29.3 11.2 28.9 10.2 28.3 9.2V9.1L28.1 9V8.7L28.6 7.2C28.8 6.7 28.6 6.1 28.2 5.7L26.3 3.8C25.9 3.4 25.3 3.3 24.8 3.4L23.3 3.9H23L22.9 3.8H22.8C21.8 3.3 20.8 2.8 19.7 2.5H19.5C19.4 2.5 19.4 2.4 19.3 2.3L18.6 0.9C18.4 0.4 17.9 0 17.4 0H14.7C14.2 0 13.7 0.3 13.4 0.8L12.7 2.2C12.7 2.3 12.6 2.4 12.5 2.4H12.3C11.2 2.7 10.2 3.1 9.2 3.7H9.1L9 3.9H8.7L7.2 3.4C6.7 3.2 6.1 3.4 5.7 3.8L3.8 5.7C3.4 6.1 3.3 6.7 3.4 7.2L3.9 8.7V9.2C3.4 10.2 2.9 11.2 2.6 12.3V12.5C2.6 12.6 2.5 12.6 2.4 12.7L1 13.4C0.4 13.6 0 14.1 0 14.6V17.3C0 17.8 0.3 18.3 0.8 18.6L2.2 19.3C2.3 19.3 2.4 19.4 2.4 19.5V19.7C2.7 20.8 3.1 21.8 3.7 22.8V22.9L3.9 23V23.3L3.4 24.8C3.2 25.3 3.4 25.9 3.8 26.3L5.7 28.2C6 28.5 6.3 28.6 6.7 28.6C6.9 28.6 7 28.6 7.2 28.5L8.7 28H9L9.1 28.1H9.2C10.2 28.6 11.2 29.1 12.3 29.4H12.5C12.6 29.4 12.6 29.5 12.7 29.6L13.4 31C13.6 31.5 14.1 31.8 14.7 31.8H17.4C17.9 31.8 18.4 31.5 18.7 31L19.4 29.6C19.4 29.5 19.5 29.4 19.6 29.4H19.8C20.9 29.1 21.9 28.7 22.9 28.1H23L23.1 28H23.4L24.9 28.5C25 28.5 25.2 28.6 25.4 28.6C25.8 28.6 26.1 28.5 26.4 28.2L28.3 26.3C28.7 25.9 28.8 25.3 28.7 24.8L28.2 23.3V23L28.3 22.9V22.8C28.8 21.8 29.3 20.8 29.6 19.7V19.5C29.6 19.4 29.7 19.4 29.8 19.3L31.2 18.6C31.7 18.4 32 17.9 32 17.3V14.6C32 14.1 31.6 13.6 31.2 13.4ZM16 29.3333C9.33333 29.3333 2.66667 24 2.66667 16C2.66667 8 9.2 2.66667 16 2.66667C22.8 2.66667 29.3333 8 29.3333 16C29.3333 24 22.6667 29.3333 16 29.3333Z" fill="black"/>
</svg>
