<svg width="23" height="23" viewBox="0 0 23 23" fill="none" xmlns="http://www.w3.org/2000/svg">
<path d="M5.33333 10.9999H10.6667V5.66658H12V10.9999H17.3333V12.3333H12V17.6666H10.6667V12.3333H5.33333V10.9999ZM4 0.333252H18.6667C19.7275 0.333252 20.7449 0.754679 21.4951 1.50482C22.2452 2.25497 22.6667 3.27239 22.6667 4.33325V18.9999C22.6667 20.0608 22.2452 21.0782 21.4951 21.8283C20.7449 22.5785 19.7275 22.9999 18.6667 22.9999H4C2.93913 22.9999 1.92172 22.5785 1.17157 21.8283C0.421427 21.0782 0 20.0608 0 18.9999V4.33325C0 3.27239 0.421427 2.25497 1.17157 1.50482C1.92172 0.754679 2.93913 0.333252 4 0.333252ZM4 1.66659C3.29276 1.66659 2.61448 1.94754 2.11438 2.44763C1.61428 2.94773 1.33333 3.62601 1.33333 4.33325V18.9999C1.33333 19.7072 1.61428 20.3854 2.11438 20.8855C2.61448 21.3856 3.29276 21.6666 4 21.6666H18.6667C19.3739 21.6666 20.0522 21.3856 20.5523 20.8855C21.0524 20.3854 21.3333 19.7072 21.3333 18.9999V4.33325C21.3333 3.62601 21.0524 2.94773 20.5523 2.44763C20.0522 1.94754 19.3739 1.66659 18.6667 1.66659H4Z" fill="black"/>
</svg>
