<svg width="212" height="58" viewBox="0 0 212 58" fill="none" xmlns="http://www.w3.org/2000/svg">
<path fill-rule="evenodd" clip-rule="evenodd" d="M14.6749 57.5583H197.326C205.397 57.5583 212 50.8701 212 42.6955V15.3046C212 7.13008 205.397 0.441895 197.326 0.441895H14.6749C6.60323 0.441895 0 7.13008 0 15.3046V42.6955C0 50.8701 6.60323 57.5583 14.6749 57.5583ZM15.1461 53.9646H196.854C203.174 53.9646 208.346 48.7264 208.346 42.3246V15.6755C208.346 9.27371 203.174 4.03553 196.854 4.03553H15.1461C8.82555 4.03553 3.6539 9.27371 3.6539 15.6755V42.3246C3.6539 48.7264 8.82555 53.9646 15.1461 53.9646ZM10.4106 10.8319H15.8883V30.7519H10.4106V10.8319ZM37.4563 10.8319V30.7519H32.9892L25.1788 19.9383V30.7519H19.9533V10.8319H24.6735L32.2308 21.2755V10.8319H37.4563ZM48.5168 31.2355C47.3176 31.2355 46.2271 31.0792 45.2434 30.7655C44.2606 30.4528 43.4268 30.0019 42.7429 29.4137C42.0598 28.8255 41.5303 28.1001 41.156 27.2373C40.7808 26.3737 40.5941 25.4019 40.5941 24.3201H46.1849C46.1849 25.041 46.4138 25.5728 46.8734 25.9137C47.332 26.2555 47.8705 26.4264 48.488 26.4264C49.0688 26.4264 49.5839 26.2837 50.0336 25.9992C50.4833 25.7146 50.7077 25.2973 50.7077 24.7473C50.7077 24.4246 50.6188 24.1592 50.4411 23.951C50.2634 23.7419 50.0193 23.5619 49.7105 23.4101C49.4017 23.2583 49.0409 23.1255 48.629 23.0119C48.217 22.8973 47.7763 22.7837 47.3087 22.6701C46.5969 22.4992 45.8618 22.2955 45.1034 22.0583C44.3441 21.821 43.6467 21.4792 43.0103 21.0337C42.3731 20.5883 41.8534 20.0092 41.4504 19.2983C41.0483 18.5864 40.8464 17.6619 40.8464 16.5237C40.8464 14.551 41.5069 13.0283 42.8272 11.9564C44.1475 10.8846 45.9785 10.3483 48.3202 10.3483C50.6987 10.3483 52.5297 10.9273 53.8123 12.0846C55.0949 13.2419 55.7366 14.8355 55.7366 16.8646H50.3145C50.3145 16.2392 50.1135 15.7737 49.7105 15.471C49.3075 15.1673 48.8255 15.0155 48.2637 15.0155C47.7763 15.0155 47.3365 15.1246 46.9434 15.3428C46.5502 15.561 46.3528 15.9073 46.3528 16.381C46.3528 16.6655 46.4425 16.9028 46.6203 17.0928C46.798 17.2828 47.0367 17.4483 47.3365 17.591C47.6363 17.7328 47.9872 17.8655 48.3902 17.9892C48.7923 18.1119 49.2285 18.231 49.6961 18.3446C50.4267 18.5346 51.1852 18.7573 51.9723 19.0137C52.7586 19.2692 53.4802 19.6255 54.1354 20.0801C54.7906 20.5355 55.3291 21.1237 55.751 21.8446C56.1719 22.5655 56.3828 23.4955 56.3828 24.6337C56.3828 25.7146 56.1863 26.6683 55.7932 27.4937C55.4 28.3183 54.8516 29.011 54.1498 29.571C53.447 30.1301 52.6185 30.5473 51.6636 30.8228C50.7077 31.0973 49.6593 31.2355 48.5168 31.2355ZM73.8203 15.7837H68.4548V30.7519H63.0328V15.7837H57.6942V10.8319H73.8203V15.7837ZM91.23 15.7837H85.8645V30.7519H80.4415V15.7837H75.1038V10.8319H91.23V15.7837ZM101.251 24.6619H99.3124V30.7519H93.8903V10.8319H102.403C103.471 10.8319 104.449 11.0028 105.339 11.3446C106.228 11.6864 106.996 12.1701 107.643 12.7955C108.289 13.4219 108.794 14.1664 109.159 15.0292C109.525 15.8928 109.708 16.8455 109.708 17.8892C109.708 19.1228 109.431 20.2183 108.878 21.1764C108.326 22.1337 107.563 22.9073 106.589 23.4955L110.494 30.7519H104.454L101.251 24.6619ZM99.3124 20.0237H101.785C102.553 20.0237 103.142 19.8201 103.555 19.4119C103.967 19.0037 104.173 18.4873 104.173 17.861C104.173 17.2346 103.967 16.7183 103.555 16.3101C103.142 15.9019 102.553 15.6983 101.785 15.6983H99.3124V20.0237ZM124.982 27.5073H118.015L116.919 30.7519H111.131L118.857 10.8319H124.139L132.033 30.7519H126.077L124.982 27.5073ZM121.498 17.0355L119.335 23.211H123.661L121.498 17.0355ZM139.638 15.7837V18.971H145.96V23.7801H139.638V30.7519H134.188V10.8319H146.69V15.7837H139.638ZM155.278 15.7837V18.971H161.599V23.7801H155.278V30.7519H149.827V10.8319H162.33V15.7837H155.278ZM165.467 10.8319H170.945V30.7519H165.467V10.8319ZM184.422 31.2637C182.923 31.2637 181.537 30.9983 180.264 30.4664C178.99 29.9355 177.885 29.2055 176.949 28.2755C176.012 27.3464 175.281 26.241 174.757 24.961C174.233 23.6801 173.971 22.3001 173.971 20.8201C173.971 19.3219 174.233 17.9319 174.757 16.6519C175.281 15.371 176.012 14.261 176.949 13.3219C177.885 12.3828 178.99 11.6483 180.264 11.1173C181.537 10.5855 182.923 10.3201 184.422 10.3201C185.715 10.3201 186.923 10.5237 188.046 10.9319C189.17 11.3401 190.167 11.9183 191.038 12.6673C191.909 13.4173 192.635 14.3137 193.215 15.3564C193.796 16.4001 194.18 17.5573 194.368 18.8283H188.889C188.552 17.8037 187.985 16.9837 187.189 16.3673C186.393 15.7501 185.48 15.4419 184.45 15.4419C183.757 15.4419 183.115 15.5746 182.526 15.841C181.936 16.1064 181.425 16.481 180.994 16.9646C180.564 17.4483 180.227 18.0173 179.983 18.6719C179.74 19.3264 179.617 20.0428 179.617 20.8201C179.617 21.5792 179.74 22.2855 179.983 22.9401C180.227 23.5946 180.564 24.1546 180.994 24.6192C181.425 25.0837 181.936 25.4492 182.526 25.7146C183.115 25.9801 183.757 26.1128 184.45 26.1128C185.537 26.1128 186.482 25.781 187.288 25.1173C188.093 24.4528 188.627 23.571 188.889 22.471H194.423C194.236 23.7801 193.857 24.9746 193.285 26.0564C192.714 27.1373 191.994 28.0628 191.122 28.831C190.252 29.5992 189.245 30.1964 188.102 30.6237C186.959 31.0501 185.733 31.2637 184.422 31.2637ZM14.8113 47.5619C14.1318 47.5619 13.5125 47.4737 12.9552 47.2955C12.3969 47.1183 11.9239 46.8628 11.5361 46.5292C11.1484 46.1955 10.8486 45.7837 10.6359 45.2946C10.4232 44.8046 10.3173 44.2537 10.3173 43.6401H13.4883C13.4883 44.0492 13.6184 44.3501 13.8787 44.5437C14.139 44.7373 14.4451 44.8346 14.7951 44.8346C15.1245 44.8346 15.4171 44.7537 15.672 44.5919C15.9269 44.431 16.0544 44.1946 16.0544 43.8819C16.0544 43.6992 16.0041 43.5483 15.9027 43.4301C15.8022 43.3119 15.6639 43.2092 15.4889 43.1237C15.313 43.0373 15.1084 42.9619 14.875 42.8973C14.6416 42.8328 14.3912 42.7683 14.1265 42.7037C13.7226 42.6073 13.3052 42.491 12.8753 42.3564C12.4445 42.2219 12.0495 42.0283 11.6878 41.7755C11.327 41.5228 11.0317 41.1946 10.8037 40.791C10.5749 40.3873 10.4609 39.8628 10.4609 39.2173C10.4609 38.0983 10.8352 37.2346 11.5846 36.6264C12.3332 36.0192 13.3716 35.7146 14.7 35.7146C16.049 35.7146 17.0875 36.0428 17.8154 36.6992C18.5433 37.3555 18.9068 38.2601 18.9068 39.411H15.8309C15.8309 39.0564 15.7169 38.7928 15.4889 38.6201C15.2601 38.4483 14.9863 38.3619 14.6677 38.3619C14.3912 38.3619 14.1417 38.4237 13.9191 38.5473C13.6956 38.671 13.5843 38.8673 13.5843 39.1364C13.5843 39.2983 13.6346 39.4328 13.736 39.5401C13.8365 39.6483 13.9721 39.7419 14.1417 39.8228C14.3122 39.9037 14.5115 39.9792 14.7395 40.0483C14.9683 40.1183 15.2152 40.1855 15.4808 40.2501C15.8946 40.3583 16.3254 40.4846 16.7715 40.6301C17.2176 40.7746 17.6269 40.9764 17.9985 41.2346C18.37 41.4928 18.6761 41.8264 18.9149 42.2355C19.1536 42.6446 19.273 43.1719 19.273 43.8173C19.273 44.431 19.1617 44.9719 18.9382 45.4401C18.7156 45.9083 18.405 46.301 18.0065 46.6183C17.608 46.9355 17.1377 47.1719 16.5965 47.3283C16.0544 47.4846 15.4593 47.5619 14.8113 47.5619ZM28.5644 44.5919V47.2873H21.2978V35.9892H28.4369V38.6846H24.3576V40.3637H28.0222V42.8973H24.3576V44.5919H28.5644ZM34.9235 43.8337H33.824V47.2873H30.7481V35.9892H35.5769C36.1827 35.9892 36.7374 36.0864 37.2418 36.2801C37.7471 36.4737 38.1824 36.7483 38.5486 37.1028C38.9148 37.4583 39.202 37.8801 39.4094 38.3701C39.6167 38.8592 39.7199 39.4001 39.7199 39.9919C39.7199 40.6919 39.5638 41.3128 39.2496 41.8564C38.9364 42.4001 38.5038 42.8383 37.9509 43.1719L40.166 47.2873H36.7401L34.9235 43.8337ZM33.824 41.2028H35.2259C35.6621 41.2028 35.996 41.0873 36.2303 40.8555C36.4636 40.6246 36.5803 40.331 36.5803 39.9764C36.5803 39.621 36.4636 39.3273 36.2303 39.0964C35.996 38.8646 35.6621 38.7492 35.2259 38.7492H33.824V41.2028ZM51.8799 35.9892L47.6085 47.2873H44.7561L40.3904 35.9892H43.8962L46.1751 43.0101L48.3893 35.9892H51.8799ZM53.4263 35.9892H56.5336V47.2873H53.4263V35.9892ZM64.4545 47.5783C63.6045 47.5783 62.8182 47.4273 62.0957 47.1264C61.3732 46.8255 60.7467 46.411 60.2154 45.8837C59.684 45.3564 59.2693 44.7292 58.9723 44.0028C58.6752 43.2764 58.5262 42.4937 58.5262 41.6546C58.5262 40.8046 58.6752 40.0164 58.9723 39.2901C59.2693 38.5637 59.684 37.9346 60.2154 37.4019C60.7467 36.8692 61.3732 36.4519 62.0957 36.151C62.8182 35.8492 63.6045 35.6983 64.4545 35.6983C65.1869 35.6983 65.8726 35.8146 66.5098 36.0455C67.1471 36.2773 67.7134 36.6055 68.2071 37.0301C68.7007 37.4555 69.1127 37.9637 69.4421 38.5555C69.7715 39.1473 69.9887 39.8037 70.0955 40.5246H66.9882C66.7971 39.9437 66.4757 39.4783 66.0234 39.1283C65.5719 38.7792 65.054 38.6037 64.4697 38.6037C64.0766 38.6037 63.7131 38.6792 63.3783 38.8301C63.0435 38.981 62.7545 39.1928 62.5104 39.4673C62.2654 39.7419 62.0742 40.0646 61.936 40.4364C61.7986 40.8073 61.7295 41.2137 61.7295 41.6546C61.7295 42.0855 61.7986 42.4855 61.936 42.8573C62.0742 43.2283 62.2654 43.5455 62.5104 43.8092C62.7545 44.0728 63.0435 44.2801 63.3783 44.431C63.7131 44.5819 64.0766 44.6564 64.4697 44.6564C65.0863 44.6564 65.6231 44.4683 66.0799 44.0919C66.5368 43.7155 66.8392 43.2146 66.9882 42.591H70.1269C70.021 43.3337 69.8056 44.011 69.4816 44.6246C69.1576 45.2383 68.7492 45.7628 68.2547 46.1983C67.761 46.6337 67.1902 46.9728 66.5422 47.2155C65.8941 47.4573 65.1976 47.5783 64.4545 47.5783ZM79.2909 44.5919V47.2873H72.0244V35.9892H79.1634V38.6846H75.0841V40.3637H78.7488V42.8973H75.0841V44.5919H79.2909ZM91.0676 38.7973V40.6055H94.6532V43.3337H91.0676V47.2873H87.9764V35.9892H95.067V38.7973H91.0676ZM102.574 47.5783C101.681 47.5783 100.858 47.4301 100.104 47.1346C99.3492 46.8383 98.6985 46.4273 98.1519 45.9001C97.6044 45.3728 97.1798 44.7455 96.8765 44.0192C96.574 43.2928 96.4223 42.4992 96.4223 41.6383C96.4223 40.7773 96.574 39.9837 96.8765 39.2583C97.1798 38.5319 97.6044 37.9046 98.1519 37.3773C98.6985 36.8501 99.3492 36.4383 100.104 36.1428C100.858 35.8464 101.681 35.6983 102.574 35.6983C103.466 35.6983 104.287 35.8464 105.036 36.1428C105.785 36.4383 106.43 36.8473 106.972 37.3692C107.514 37.891 107.936 38.5155 108.238 39.2419C108.542 39.9683 108.693 40.7673 108.693 41.6383C108.693 42.5101 108.542 43.3092 108.238 44.0355C107.936 44.7619 107.514 45.3855 106.972 45.9083C106.43 46.4292 105.785 46.8383 105.036 47.1346C104.287 47.4301 103.466 47.5783 102.574 47.5783ZM102.574 44.6728C102.999 44.6728 103.389 44.5973 103.745 44.4473C104.101 44.2964 104.409 44.0864 104.669 43.8173C104.929 43.5483 105.131 43.2283 105.275 42.8573C105.418 42.4855 105.49 42.0801 105.49 41.6383C105.49 41.1973 105.418 40.791 105.275 40.4201C105.131 40.0483 104.929 39.7283 104.669 39.4592C104.409 39.1901 104.101 38.981 103.745 38.8301C103.389 38.6792 102.999 38.6037 102.574 38.6037C102.149 38.6037 101.756 38.6792 101.395 38.8301C101.033 38.981 100.722 39.1901 100.462 39.4592C100.202 39.7283 99.9972 40.0483 99.8482 40.4201C99.7001 40.791 99.6256 41.1973 99.6256 41.6383C99.6256 42.0801 99.7001 42.4855 99.8482 42.8573C99.9972 43.2283 100.202 43.5483 100.462 43.8173C100.722 44.0864 101.033 44.2964 101.395 44.4473C101.756 44.5973 102.149 44.6728 102.574 44.6728ZM114.861 43.8337H113.761V47.2873H110.685V35.9892H115.514C116.12 35.9892 116.675 36.0864 117.18 36.2801C117.684 36.4737 118.12 36.7483 118.486 37.1028C118.853 37.4583 119.139 37.8801 119.346 38.3701C119.554 38.8592 119.657 39.4001 119.657 39.9919C119.657 40.6919 119.501 41.3128 119.188 41.8564C118.873 42.4001 118.441 42.8383 117.889 43.1719L120.104 47.2873H116.677L114.861 43.8337ZM113.761 41.2028H115.164C115.599 41.2028 115.934 41.0873 116.167 40.8555C116.401 40.6246 116.518 40.331 116.518 39.9764C116.518 39.621 116.401 39.3273 116.167 39.0964C115.934 38.8646 115.599 38.7492 115.164 38.7492H113.761V41.2028ZM133.123 36.0055C133.718 36.0055 134.265 36.1073 134.765 36.3119C135.264 36.5164 135.7 36.7964 136.071 37.1564C136.443 37.5173 136.733 37.9473 136.94 38.4455C137.147 38.9455 137.251 39.4892 137.251 40.081C137.251 40.6728 137.147 41.2164 136.94 41.7164C136.733 42.2146 136.443 42.6473 136.071 43.0128C135.7 43.3792 135.264 43.6619 134.765 43.8655C134.265 44.0701 133.718 44.1728 133.123 44.1728H131.45V47.2873H128.374V36.0055H133.123ZM132.757 41.4446C133.161 41.4446 133.485 41.3183 133.729 41.0655C133.973 40.8128 134.095 40.4819 134.095 40.0728C134.095 39.6746 133.973 39.3464 133.729 39.0883C133.485 38.8301 133.161 38.701 132.757 38.701H131.45V41.4446H132.757ZM144.629 47.5783C143.737 47.5783 142.913 47.4301 142.159 47.1346C141.405 46.8383 140.755 46.4273 140.207 45.9001C139.66 45.3728 139.235 44.7455 138.933 44.0192C138.629 43.2928 138.479 42.4992 138.479 41.6383C138.479 40.7773 138.629 39.9837 138.933 39.2583C139.235 38.5319 139.66 37.9046 140.207 37.3773C140.755 36.8501 141.405 36.4383 142.159 36.1428C142.913 35.8464 143.737 35.6983 144.629 35.6983C145.522 35.6983 146.343 35.8464 147.091 36.1428C147.84 36.4383 148.486 36.8473 149.027 37.3692C149.57 37.891 149.991 38.5155 150.295 39.2419C150.597 39.9683 150.749 40.7673 150.749 41.6383C150.749 42.5101 150.597 43.3092 150.295 44.0355C149.991 44.7619 149.57 45.3855 149.027 45.9083C148.486 46.4292 147.84 46.8383 147.091 47.1346C146.343 47.4301 145.522 47.5783 144.629 47.5783ZM144.629 44.6728C145.054 44.6728 145.444 44.5973 145.801 44.4473C146.156 44.2964 146.465 44.0864 146.725 43.8173C146.985 43.5483 147.187 43.2283 147.33 42.8573C147.474 42.4855 147.546 42.0801 147.546 41.6383C147.546 41.1973 147.474 40.791 147.33 40.4201C147.187 40.0483 146.985 39.7283 146.725 39.4592C146.465 39.1901 146.156 38.981 145.801 38.8301C145.444 38.6792 145.054 38.6037 144.629 38.6037C144.204 38.6037 143.811 38.6792 143.45 38.8301C143.089 38.981 142.778 39.1901 142.518 39.4592C142.257 39.7283 142.053 40.0483 141.904 40.4201C141.755 40.791 141.681 41.1973 141.681 41.6383C141.681 42.0801 141.755 42.4855 141.904 42.8573C142.053 43.2283 142.257 43.5483 142.518 43.8173C142.778 44.0864 143.089 44.2964 143.45 44.4473C143.811 44.5973 144.204 44.6728 144.629 44.6728ZM156.693 47.5619C156.013 47.5619 155.395 47.4737 154.837 47.2955C154.279 47.1183 153.806 46.8628 153.418 46.5292C153.03 46.1955 152.731 45.7837 152.518 45.2946C152.306 44.8046 152.199 44.2537 152.199 43.6401H155.37C155.37 44.0492 155.5 44.3501 155.761 44.5437C156.021 44.7373 156.327 44.8346 156.677 44.8346C157.007 44.8346 157.299 44.7537 157.554 44.5919C157.809 44.431 157.936 44.1946 157.936 43.8819C157.936 43.6992 157.886 43.5483 157.785 43.4301C157.684 43.3119 157.546 43.2092 157.371 43.1237C157.195 43.0373 156.99 42.9619 156.757 42.8973C156.524 42.8328 156.273 42.7683 156.008 42.7037C155.605 42.6073 155.187 42.491 154.757 42.3564C154.326 42.2219 153.931 42.0283 153.57 41.7755C153.209 41.5228 152.914 41.1946 152.686 40.791C152.457 40.3873 152.343 39.8628 152.343 39.2173C152.343 38.0983 152.717 37.2346 153.467 36.6264C154.215 36.0192 155.254 35.7146 156.582 35.7146C157.931 35.7146 158.969 36.0428 159.697 36.6992C160.425 37.3555 160.789 38.2601 160.789 39.411H157.713C157.713 39.0564 157.599 38.7928 157.371 38.6201C157.142 38.4483 156.868 38.3619 156.55 38.3619C156.273 38.3619 156.024 38.4237 155.801 38.5473C155.578 38.671 155.466 38.8673 155.466 39.1364C155.466 39.2983 155.517 39.4328 155.618 39.5401C155.719 39.6483 155.854 39.7419 156.024 39.8228C156.194 39.9037 156.394 39.9792 156.622 40.0483C156.85 40.1183 157.097 40.1855 157.363 40.2501C157.777 40.3583 158.207 40.4846 158.654 40.6301C159.1 40.7746 159.509 40.9764 159.88 41.2346C160.252 41.4928 160.558 41.8264 160.797 42.2355C161.036 42.6446 161.155 43.1719 161.155 43.8173C161.155 44.431 161.044 44.9719 160.82 45.4401C160.598 45.9083 160.287 46.301 159.889 46.6183C159.49 46.9355 159.02 47.1719 158.478 47.3283C157.936 47.4846 157.341 47.5619 156.693 47.5619ZM171.323 38.7973H168.279V47.2873H165.204V38.7973H162.176V35.9892H171.323V38.7973ZM173.109 35.9892H176.216V47.2873H173.109V35.9892ZM188.726 35.9892V47.2873H186.192L181.762 41.1546V47.2873H178.798V35.9892H181.475L185.762 41.9128V35.9892H188.726ZM202.559 41.251C202.559 42.1764 202.418 43.0264 202.137 43.8019C201.855 44.5764 201.457 45.2437 200.941 45.8028C200.426 46.3628 199.807 46.7983 199.085 47.1101C198.363 47.4219 197.566 47.5783 196.694 47.5783C195.834 47.5783 195.043 47.4301 194.32 47.1346C193.598 46.8383 192.971 46.4292 192.44 45.9083C191.908 45.3855 191.494 44.7619 191.197 44.0355C190.9 43.3092 190.751 42.5155 190.751 41.6546C190.751 40.7937 190.897 40.0001 191.189 39.2737C191.481 38.5473 191.89 37.9183 192.416 37.3855C192.942 36.8528 193.565 36.4383 194.288 36.1428C195.01 35.8464 195.802 35.6983 196.663 35.6983C197.396 35.6983 198.086 35.8092 198.734 36.0292C199.382 36.2501 199.961 36.5592 200.471 36.9573C200.981 37.3555 201.409 37.8292 201.754 38.3783C202.099 38.9273 202.331 39.5292 202.447 40.1855H199.228C199.026 39.7019 198.697 39.3201 198.241 39.0401C197.784 38.7601 197.268 38.6201 196.694 38.6201C196.28 38.6201 195.9 38.6928 195.555 38.8383C195.21 38.9837 194.913 39.1901 194.663 39.4592C194.413 39.7283 194.221 40.0483 194.089 40.4201C193.956 40.791 193.889 41.2028 193.889 41.6546C193.889 42.0955 193.956 42.5019 194.089 42.8737C194.221 43.2446 194.41 43.5619 194.655 43.8255C194.899 44.0892 195.193 44.2937 195.539 44.4392C195.885 44.5846 196.27 44.6564 196.694 44.6564C197.278 44.6564 197.799 44.5246 198.256 44.261C198.713 43.9983 199.031 43.6455 199.213 43.2046H196.439V41.251H202.559ZM201.1 31.5928V30.2528H202.371V31.5928H201.1ZM202.504 26.8001C202.504 27.1973 202.435 27.5646 202.298 27.9028C202.161 28.2401 201.972 28.5328 201.732 28.781C201.492 29.0292 201.206 29.2228 200.876 29.3619C200.545 29.501 200.188 29.5701 199.806 29.5701C199.419 29.5701 199.06 29.501 198.729 29.3619C198.399 29.2228 198.111 29.0292 197.869 28.781C197.627 28.5328 197.436 28.2401 197.299 27.9028C197.162 27.5646 197.094 27.1973 197.094 26.8001C197.094 26.4583 197.147 26.1383 197.252 25.8401C197.357 25.5419 197.506 25.2783 197.7 25.0473C197.893 24.8164 198.125 24.6237 198.395 24.4701C198.664 24.3164 198.963 24.2146 199.292 24.1646V25.6164C199.027 25.7055 198.815 25.8564 198.655 26.0673C198.496 26.2783 198.417 26.5201 198.417 26.7928C198.417 26.9764 198.451 27.1464 198.52 27.3028C198.588 27.4592 198.685 27.5946 198.81 27.7092C198.935 27.8228 199.082 27.9119 199.251 27.9764C199.42 28.041 199.605 28.0737 199.806 28.0737C200.002 28.0737 200.185 28.041 200.353 27.9764C200.523 27.9119 200.668 27.8228 200.787 27.7092C200.907 27.5946 201.001 27.4592 201.071 27.3028C201.139 27.1464 201.173 26.9764 201.173 26.7928C201.173 26.5055 201.088 26.2546 200.916 26.041C200.745 25.8273 200.517 25.6864 200.232 25.6164V24.1501C200.571 24.1992 200.879 24.3001 201.159 24.451C201.438 24.6028 201.676 24.7937 201.876 25.0246C202.074 25.2555 202.228 25.5228 202.339 25.8255C202.448 26.1283 202.504 26.4528 202.504 26.8001ZM202.504 20.7946C202.504 21.211 202.437 21.5964 202.302 21.9483C202.167 22.301 201.98 22.6046 201.739 22.8601C201.5 23.1164 201.213 23.3146 200.883 23.4564C200.552 23.5973 200.191 23.6683 199.799 23.6683C199.407 23.6683 199.045 23.5973 198.715 23.4564C198.383 23.3146 198.098 23.1164 197.858 22.8601C197.618 22.6046 197.43 22.301 197.296 21.9483C197.161 21.5964 197.094 21.211 197.094 20.7946C197.094 20.3773 197.161 19.9937 197.296 19.6437C197.43 19.2946 197.617 18.9928 197.855 18.7392C198.092 18.4864 198.376 18.2892 198.707 18.1473C199.038 18.0064 199.402 17.9355 199.799 17.9355C200.196 17.9355 200.56 18.0064 200.89 18.1473C201.221 18.2892 201.505 18.4864 201.743 18.7392C201.981 18.9928 202.167 19.2946 202.302 19.6437C202.437 19.9937 202.504 20.3773 202.504 20.7946ZM201.181 20.7946C201.181 20.5955 201.146 20.4137 201.078 20.2473C201.009 20.081 200.914 19.9373 200.791 19.8155C200.669 19.6937 200.523 19.5992 200.353 19.5328C200.185 19.4655 200 19.4319 199.799 19.4319C199.598 19.4319 199.413 19.4655 199.244 19.5328C199.074 19.5992 198.929 19.6937 198.806 19.8155C198.684 19.9373 198.588 20.081 198.52 20.2473C198.451 20.4137 198.417 20.5955 198.417 20.7946C198.417 20.9928 198.451 21.1764 198.52 21.3455C198.588 21.5137 198.684 21.6592 198.806 21.781C198.929 21.9028 199.074 21.9983 199.244 22.0673C199.413 22.1373 199.598 22.1719 199.799 22.1719C200 22.1719 200.185 22.1373 200.353 22.0673C200.523 21.9983 200.669 21.9028 200.791 21.781C200.914 21.6592 201.009 21.5137 201.078 21.3455C201.146 21.1764 201.181 20.9928 201.181 20.7946ZM202.371 12.0337L199.409 12.4428L202.379 13.821V14.2446L199.409 15.6301L202.371 16.0319V17.4837L197.226 16.6946V15.2646L200.027 14.0364L197.226 12.8001V11.3637L202.371 10.5892V12.0337Z" fill="url(#paint0_linear)"/>
<defs>
<linearGradient id="paint0_linear" x1="0" y1="29.0001" x2="212" y2="29.0001" gradientUnits="userSpaceOnUse">
<stop stop-color="#F61919"/>
<stop offset="0.278431" stop-color="#E5D330"/>
<stop offset="0.529412" stop-color="#23C255"/>
<stop offset="0.780392" stop-color="#724AF7"/>
<stop offset="1" stop-color="#F835C1"/>
</linearGradient>
</defs>
</svg>
