<svg width="24" height="19" viewBox="0 0 24 19" fill="none" xmlns="http://www.w3.org/2000/svg">
<path d="M16.0401 1.42857C17.2901 1.42857 18.3448 1.84524 19.2042 2.67857C20.1729 2.5 21.0792 2.18006 21.9229 1.71875C21.5948 2.67113 20.9698 3.4003 20.0479 3.90625C20.9073 3.81696 21.7276 3.60863 22.5089 3.28125C22.3214 3.54911 22.1143 3.8058 21.8878 4.05134C21.6612 4.29688 21.419 4.52753 21.1612 4.7433C20.9034 4.95908 20.6339 5.16369 20.3526 5.35714C20.3683 5.53571 20.3761 5.70685 20.3761 5.87054C20.3761 6.74851 20.255 7.63393 20.0128 8.52679C19.7706 9.41964 19.419 10.2902 18.9581 11.1384C18.4972 11.9866 17.9112 12.7753 17.2003 13.5045C16.4894 14.2336 15.6925 14.8735 14.8097 15.4241C13.9269 15.9747 12.9112 16.4062 11.7628 16.7188C10.6144 17.0312 9.39951 17.1875 8.11826 17.1875C5.72764 17.1875 3.52451 16.5923 1.50889 15.4018C1.68076 15.4167 1.84873 15.4315 2.0128 15.4464C2.17686 15.4613 2.35264 15.4688 2.54014 15.4688C4.54014 15.4688 6.32139 14.8958 7.88389 13.75C6.94639 13.7351 6.11045 13.471 5.37607 12.9576C4.6417 12.4442 4.13389 11.7857 3.85264 10.9821C3.94639 10.997 4.03623 11.0119 4.12217 11.0268C4.20811 11.0417 4.29795 11.0528 4.3917 11.0603C4.48545 11.0677 4.5792 11.0714 4.67295 11.0714C5.06357 11.0714 5.43857 11.0193 5.79795 10.9152C4.81358 10.7366 3.99326 10.2827 3.33701 9.55357C2.68076 8.8244 2.35264 7.97619 2.35264 7.00893V6.96429C2.96201 7.27679 3.61045 7.44048 4.29795 7.45536C3.90733 7.21726 3.57139 6.9308 3.29014 6.59598C3.00889 6.26116 2.78623 5.8817 2.62217 5.45759C2.45811 5.03348 2.37608 4.59821 2.37608 4.15179C2.37608 3.79464 2.42686 3.44494 2.52842 3.10268C2.62998 2.76042 2.77451 2.44048 2.96201 2.14286C4.04014 3.37798 5.34873 4.36012 6.88779 5.08929C8.42685 5.81845 10.0792 6.22768 11.8448 6.31696C11.7667 6.01935 11.7276 5.71429 11.7276 5.40179C11.7276 4.3006 12.1495 3.3631 12.9933 2.58929C13.837 1.81548 14.8526 1.42857 16.0401 1.42857ZM16.0401 0C14.587 0 13.3136 0.450149 12.2198 1.35045C11.1261 2.25074 10.4854 3.3631 10.2979 4.6875C7.78232 4.21131 5.71982 3.05804 4.11045 1.22768C3.81358 0.885417 3.43076 0.714286 2.96201 0.714286L2.84483 0.736607C2.3292 0.766369 1.93858 0.989583 1.67295 1.40625C1.1417 2.25446 0.876077 3.16964 0.876077 4.15179C0.876077 4.79167 0.993265 5.40923 1.22764 6.00446C0.97764 6.2872 0.85264 6.60714 0.85264 6.96429V7.00893C0.85264 8.42262 1.36826 9.6503 2.39951 10.692C2.36826 10.811 2.35655 10.9338 2.36436 11.0603C2.37217 11.1868 2.3917 11.3095 2.42295 11.4286C2.7667 12.3958 3.34483 13.2068 4.15733 13.8616C3.8917 13.9211 3.62217 13.9658 3.34873 13.9955C3.07529 14.0253 2.80576 14.0402 2.54014 14.0402C2.22764 14.0402 1.93858 14.0253 1.67295 13.9955L1.50889 13.9732C1.18076 13.9732 0.887796 14.0625 0.629984 14.2411C0.372171 14.4196 0.188577 14.6503 0.0792025 14.933C-0.0301724 15.2455 -0.0262662 15.5618 0.0909213 15.8817C0.208109 16.2016 0.41514 16.4435 0.712015 16.6071C2.96201 17.9464 5.43076 18.6161 8.11826 18.6161C9.77451 18.6161 11.337 18.3817 12.8058 17.9129C14.2745 17.4442 15.5479 16.8006 16.6261 15.9821C17.7042 15.1637 18.6378 14.2225 19.4268 13.1585C20.2159 12.0945 20.8175 10.9561 21.2315 9.7433C21.6456 8.53051 21.8604 7.29911 21.8761 6.04911C22.5792 5.49851 23.1886 4.86607 23.7042 4.15179C23.8136 4.03274 23.8917 3.89881 23.9386 3.75C23.9854 3.60119 24.0089 3.44494 24.0089 3.28125C24.0089 2.79018 23.7979 2.40327 23.3761 2.12054C23.4229 1.92708 23.4386 1.74107 23.4229 1.5625C23.4073 1.38393 23.3526 1.20908 23.2589 1.03795C23.1651 0.866816 23.0401 0.721726 22.8839 0.602679C22.6026 0.394345 22.2823 0.290179 21.9229 0.290179C21.8604 0.290179 21.7979 0.293899 21.7354 0.301339C21.6729 0.30878 21.6104 0.31994 21.5479 0.334821C21.4854 0.349702 21.4229 0.368304 21.3604 0.390625C21.2979 0.412946 21.2354 0.438988 21.1729 0.46875C20.6886 0.751488 20.1651 0.967262 19.6026 1.11607C18.5401 0.372024 17.3526 0 16.0401 0Z" fill="white"/>
</svg>
