<svg width="26" height="23" viewBox="0 0 26 23" fill="none" xmlns="http://www.w3.org/2000/svg">
<path d="M4.66675 0.333252H22.0001C23.0609 0.333252 24.0784 0.754679 24.8285 1.50482C25.5787 2.25497 26.0001 3.27239 26.0001 4.33325V18.9999C26.0001 20.0608 25.5787 21.0782 24.8285 21.8283C24.0784 22.5785 23.0609 22.9999 22.0001 22.9999H4.66675C3.60588 22.9999 2.58847 22.5785 1.83832 21.8283C1.08818 21.0782 0.666748 20.0608 0.666748 18.9999V4.33325C0.666748 3.27239 1.08818 2.25497 1.83832 1.50482C2.58847 0.754679 3.60588 0.333252 4.66675 0.333252ZM4.66675 1.66659C3.9595 1.66659 3.28123 1.94754 2.78113 2.44763C2.28103 2.94773 2.00008 3.62601 2.00008 4.33325H24.6667C24.6667 3.62601 24.3858 2.94773 23.8857 2.44763C23.3856 1.94754 22.7073 1.66659 22.0001 1.66659H4.66675ZM2.00008 18.9999C2.00008 19.7072 2.28103 20.3854 2.78113 20.8855C3.28123 21.3856 3.9595 21.6666 4.66675 21.6666H22.0001C22.7073 21.6666 23.3856 21.3856 23.8857 20.8855C24.3858 20.3854 24.6667 19.7072 24.6667 18.9999V5.66658H2.00008V18.9999ZM20.6667 18.9999H14.0001V17.6666H20.6667V18.9999ZM6.00008 8.99992L6.94275 8.05725L12.5521 13.6666L6.94275 19.2759L6.00008 18.3333L10.6667 13.6666L6.00008 8.99992Z" fill="#F7F9FA"/>
</svg>
