<svg width="26" height="26" viewBox="0 0 26 26" fill="none" xmlns="http://www.w3.org/2000/svg">
<path d="M13.3334 1.33333C11.845 1.33342 10.3712 1.62667 8.99613 2.19634C7.62106 2.76601 6.37166 3.60094 5.31926 4.65346C4.26686 5.70598 3.43208 6.95548 2.86258 8.33062C2.29307 9.70575 1.99999 11.1796 2.00008 12.668C2.00017 14.1564 2.29342 15.6302 2.86309 17.0053C3.43275 18.3804 4.26768 19.6298 5.3202 20.6822C6.37273 21.7346 7.62223 22.5693 8.99736 23.1388C10.3725 23.7083 11.8463 24.0014 13.3347 24.0013C16.3407 24.0012 19.2235 22.8069 21.3489 20.6812C23.4743 18.5555 24.6683 15.6726 24.6681 12.6667C24.6679 9.6607 23.4736 6.77793 21.348 4.65251C19.2223 2.5271 16.3394 1.33316 13.3334 1.33333ZM13.3334 0C16.6928 0 19.9146 1.33452 22.2901 3.70998C24.6656 6.08544 26.0001 9.30726 26.0001 12.6667C26.0001 16.0261 24.6656 19.2479 22.2901 21.6234C19.9146 23.9988 16.6928 25.3333 13.3334 25.3333C9.97401 25.3333 6.75219 23.9988 4.37673 21.6234C2.00127 19.2479 0.666748 16.0261 0.666748 12.6667C0.666748 9.30726 2.00127 6.08544 4.37673 3.70998C6.75219 1.33452 9.97401 0 13.3334 0ZM12.6667 18.6667H14.0001V21.3333H12.6667V18.6667ZM13.3334 4C14.5711 4 15.7581 4.49167 16.6332 5.36684C17.5084 6.24201 18.0001 7.42899 18.0001 8.66667C18.0001 9.86267 17.0681 10.692 16.0814 11.568L14.8347 12.772C14.0507 13.6707 13.9654 15.3787 13.9987 15.9613V16H12.6667C12.6614 15.9307 12.5307 13.3813 13.8321 11.8947L15.1947 10.572C15.9841 9.87067 16.6667 9.264 16.6667 8.66667C16.6667 7.78261 16.3156 6.93477 15.6904 6.30964C15.0653 5.68452 14.2175 5.33333 13.3334 5.33333C12.4494 5.33333 11.6015 5.68452 10.9764 6.30964C10.3513 6.93477 10.0001 7.78261 10.0001 8.66667H8.66675C8.66675 7.42899 9.15841 6.24201 10.0336 5.36684C10.9088 4.49167 12.0957 4 13.3334 4Z" fill="#F7F9FA"/>
</svg>
