<svg width="21" height="21" viewBox="0 0 21 21" fill="none" xmlns="http://www.w3.org/2000/svg">
<path d="M10.3333 12.6665C15.8559 12.6665 20.3333 14.7558 20.3333 17.3332V20.6665H0.333252V17.3332C0.333252 14.7558 4.81059 12.6665 10.3333 12.6665ZM18.9999 17.3332C18.9999 15.4932 15.1199 13.9998 10.3333 13.9998C5.54659 13.9998 1.66659 15.4932 1.66659 17.3332V19.3332H18.9999V17.3332ZM10.3333 0.666504C11.5709 0.666504 12.7579 1.15817 13.6331 2.03334C14.5083 2.90851 14.9999 4.09549 14.9999 5.33317C14.9999 6.57085 14.5083 7.75783 13.6331 8.633C12.7579 9.50817 11.5709 9.99984 10.3333 9.99984C9.09558 9.99984 7.90859 9.50817 7.03342 8.633C6.15825 7.75783 5.66659 6.57085 5.66659 5.33317C5.66659 4.09549 6.15825 2.90851 7.03342 2.03334C7.90859 1.15817 9.09558 0.666504 10.3333 0.666504ZM10.3333 1.99984C9.4492 1.99984 8.60135 2.35103 7.97623 2.97615C7.35111 3.60127 6.99992 4.44912 6.99992 5.33317C6.99992 6.21723 7.35111 7.06507 7.97623 7.69019C8.60135 8.31531 9.4492 8.6665 10.3333 8.6665C11.2173 8.6665 12.0652 8.31531 12.6903 7.69019C13.3154 7.06507 13.6666 6.21723 13.6666 5.33317C13.6666 4.44912 13.3154 3.60127 12.6903 2.97615C12.0652 2.35103 11.2173 1.99984 10.3333 1.99984Z" fill="url(#paint0_linear)"/>
<defs>
<linearGradient id="paint0_linear" x1="0.333252" y1="10.6665" x2="20.3333" y2="10.6665" gradientUnits="userSpaceOnUse">
<stop stop-color="#CFF37D"/>
<stop offset="1" stop-color="#7DE88C"/>
</linearGradient>
</defs>
</svg>
