<svg width="26" height="27" viewBox="0 0 26 27" fill="none" xmlns="http://www.w3.org/2000/svg">
<path d="M24.1172 17.656L21.6985 15.936C22.1048 14.4424 22.1025 12.8671 21.6919 11.3746L24.1185 9.67598L22.1812 6.32398L19.4825 7.55865C18.3918 6.46001 17.026 5.67444 15.5279 5.28398L15.2705 2.33331H11.3959L11.1385 5.28398C9.64074 5.67497 8.27542 6.46101 7.18521 7.55998L4.48521 6.32531L2.54921 9.67731L4.97588 11.376C4.56511 12.8679 4.56234 14.4427 4.96788 15.936L2.54921 17.656L4.48521 20.992L7.18521 19.756C8.27558 20.8545 9.64089 21.64 11.1385 22.0306L11.3959 24.9813H15.2705L15.5279 22.0306C17.0255 21.64 18.3908 20.8544 19.4812 19.756L22.1812 20.992L24.1185 17.6573L24.1172 17.656ZM16.0065 0.979981C16.1782 0.979799 16.3433 1.04581 16.4674 1.16428C16.5916 1.28275 16.6653 1.44454 16.6732 1.61598L16.9105 4.32931C17.8962 4.70492 18.8157 5.23512 19.6345 5.89998L22.1012 4.74931C22.2536 4.67093 22.4302 4.6542 22.5946 4.70262C22.7589 4.75103 22.8983 4.86086 22.9839 5.00931L25.6572 9.63598C25.7431 9.78428 25.7686 9.95997 25.7284 10.1266C25.6881 10.2932 25.5853 10.4379 25.4412 10.5306L23.2092 12.0933C23.3799 13.1573 23.3745 14.2173 23.2105 15.2386L25.4412 16.7986C25.5857 16.8914 25.6887 17.0364 25.729 17.2033C25.7692 17.3702 25.7435 17.5462 25.6572 17.6946L22.9839 22.304C22.8983 22.4524 22.7589 22.5623 22.5946 22.6107C22.4302 22.6591 22.2536 22.6424 22.1012 22.564L19.6345 21.4133C18.8319 22.0666 17.9172 22.6 16.9105 22.9853L16.6732 25.6986C16.665 25.8699 16.5911 26.0313 16.467 26.1495C16.3428 26.2677 16.1779 26.3335 16.0065 26.3333H10.6599C10.4885 26.3335 10.3236 26.2677 10.1994 26.1495C10.0753 26.0313 10.0014 25.8699 9.99321 25.6986L9.75588 22.9853C8.77019 22.6092 7.85068 22.0786 7.03188 21.4133L4.56521 22.564C4.41288 22.6429 4.236 22.66 4.07136 22.6119C3.90671 22.5637 3.76698 22.4539 3.68121 22.3053L1.00921 17.6933C0.923316 17.545 0.897833 17.3693 0.938055 17.2027C0.978276 17.0361 1.08111 16.8914 1.22521 16.7986L3.45588 15.2373C3.28883 14.1955 3.28883 13.1338 3.45588 12.092L1.22655 10.5306C1.0828 10.4379 0.980208 10.2934 0.940003 10.1271C0.899797 9.96087 0.925053 9.78549 1.01054 9.63731L3.67988 5.00931C3.76542 4.86051 3.90507 4.75044 4.06973 4.70201C4.23439 4.65358 4.41139 4.67052 4.56388 4.74931L7.03054 5.89998C7.84939 5.23512 8.76891 4.70492 9.75454 4.32931L9.99188 1.61598C9.99977 1.44454 10.0735 1.28275 10.1977 1.16428C10.3218 1.04581 10.4869 0.979799 10.6585 0.979981H16.0052H16.0065ZM13.3332 8.99998C14.5709 8.99998 15.7579 9.49165 16.633 10.3668C17.5082 11.242 17.9999 12.429 17.9999 13.6666C17.9999 14.9043 17.5082 16.0913 16.633 16.9665C15.7579 17.8416 14.5709 18.3333 13.3332 18.3333C12.0955 18.3333 10.9085 17.8416 10.0334 16.9665C9.15821 16.0913 8.66654 14.9043 8.66654 13.6666C8.66654 12.429 9.15821 11.242 10.0334 10.3668C10.9085 9.49165 12.0955 8.99998 13.3332 8.99998ZM13.3332 10.3333C12.4492 10.3333 11.6013 10.6845 10.9762 11.3096C10.3511 11.9347 9.99988 12.7826 9.99988 13.6666C9.99988 14.5507 10.3511 15.3985 10.9762 16.0237C11.6013 16.6488 12.4492 17 13.3332 17C14.2173 17 15.0651 16.6488 15.6902 16.0237C16.3154 15.3985 16.6665 14.5507 16.6665 13.6666C16.6665 12.7826 16.3154 11.9347 15.6902 11.3096C15.0651 10.6845 14.2173 10.3333 13.3332 10.3333Z" fill="#F7F9FA"/>
</svg>
