<svg width="16" height="16" viewBox="0 0 16 16" fill="none" xmlns="http://www.w3.org/2000/svg">
<path d="M8 9.6C12.4181 9.6 16 11.2715 16 13.3333V16H0V13.3333C0 11.2715 3.58187 9.6 8 9.6ZM14.9333 13.3333C14.9333 11.8613 11.8293 10.6667 8 10.6667C4.17067 10.6667 1.06667 11.8613 1.06667 13.3333V14.9333H14.9333V13.3333ZM8 0C8.99014 0 9.93973 0.393332 10.6399 1.09347C11.34 1.7936 11.7333 2.74319 11.7333 3.73333C11.7333 4.72347 11.34 5.67306 10.6399 6.3732C9.93973 7.07333 8.99014 7.46667 8 7.46667C7.00986 7.46667 6.06027 7.07333 5.36014 6.3732C4.66 5.67306 4.26667 4.72347 4.26667 3.73333C4.26667 2.74319 4.66 1.7936 5.36014 1.09347C6.06027 0.393332 7.00986 0 8 0ZM8 1.06667C7.29276 1.06667 6.61448 1.34762 6.11438 1.84772C5.61428 2.34781 5.33333 3.02609 5.33333 3.73333C5.33333 4.44058 5.61428 5.11885 6.11438 5.61895C6.61448 6.11905 7.29276 6.4 8 6.4C8.70724 6.4 9.38552 6.11905 9.88562 5.61895C10.3857 5.11885 10.6667 4.44058 10.6667 3.73333C10.6667 3.02609 10.3857 2.34781 9.88562 1.84772C9.38552 1.34762 8.70724 1.06667 8 1.06667Z" fill="#F7F9FA"/>
</svg>
