<svg width="26" height="27" viewBox="0 0 26 27" fill="none" xmlns="http://www.w3.org/2000/svg">
<path d="M3.33341 14.3334V25H12.6667V14.3334H3.33341ZM14.0001 14.3334V25H23.3334V14.3334H14.0001ZM24.6667 14.3334V26.3334H2.00008V14.3334H0.666748V6.33338H4.71341L4.66675 5.66671C4.66639 4.64627 5.00052 3.65384 5.61796 2.84139C6.23541 2.02895 7.10213 1.44128 8.08541 1.16839C9.06868 0.89549 10.1143 0.952408 11.0621 1.33042C12.01 1.70844 12.8078 2.38672 13.3334 3.26138C13.859 2.38672 14.6568 1.70844 15.6047 1.33042C16.5525 0.952408 17.5981 0.89549 18.5814 1.16839C19.5647 1.44128 20.4314 2.02895 21.0489 2.84139C21.6663 3.65384 22.0004 4.64627 22.0001 5.66671L21.9534 6.33338H26.0001V14.3334H24.6667ZM2.00008 7.66671V13H12.6667V7.66671H2.00008ZM24.6667 13V7.66671H14.0001V13H24.6667ZM20.6001 6.33338L20.6667 5.66671C20.6667 4.78266 20.3156 3.93481 19.6904 3.30969C19.0653 2.68457 18.2175 2.33338 17.3334 2.33338C16.4494 2.33338 15.6015 2.68457 14.9764 3.30969C14.3513 3.93481 14.0001 4.78266 14.0001 5.66671V6.33338H20.6001ZM12.6667 6.33338V5.66671C12.6667 4.78266 12.3156 3.93481 11.6904 3.30969C11.0653 2.68457 10.2175 2.33338 9.33342 2.33338C8.44936 2.33338 7.60151 2.68457 6.97639 3.30969C6.35127 3.93481 6.00008 4.78266 6.00008 5.66671L6.06675 6.33338H12.6667Z" fill="#F7F9FA"/>
</svg>
