<svg width="23" height="24" viewBox="0 0 23 24" fill="none" xmlns="http://www.w3.org/2000/svg">
<path d="M22.6667 4.99995L17.9533 9.71461L17.0093 8.77061L20.1147 5.66661H4V10.9999H2.66667V4.33328H20.1147L17.0093 1.22928L17.9533 0.285278L22.6667 4.99995ZM18.6667 17.6666V12.3333H20V18.9999H2.552L5.65733 22.1039L4.71467 23.0466L0 18.3333L4.71467 13.6186L5.65733 14.5626L2.552 17.6666H18.6667Z" fill="#F7F9FA"/>
<path fill-rule="evenodd" clip-rule="evenodd" d="M9.33333 6.99995H10.6667V9.66661H12V6.99995H13.3333V9.66661L16 9.66661V10.9999H13.3333V12.3333H16V13.6666H13.3333V16.3333H12V13.6666L10.6667 13.6666V16.3333H9.33333V13.6666H6.66667V12.3333H9.33333V10.9999H6.66667V9.66661H9.33333V6.99995ZM10.6667 12.3333L12 12.3333V10.9999H10.6667V12.3333Z" fill="#F7F9FA"/>
</svg>
