<svg width="22" height="22" viewBox="0 0 22 22" fill="none" xmlns="http://www.w3.org/2000/svg">
<path d="M19.6491 21.3333C20.5777 21.3333 21.3333 20.5777 21.3333 19.6491V15.7193C21.3333 14.7907 20.5777 14.0351 19.6491 14.0351C18.3354 14.0351 17.0442 13.8285 15.8091 13.4209C15.5139 13.3277 15.1989 13.3164 14.8977 13.3881C14.5966 13.4599 14.3205 13.6121 14.0991 13.8285L12.4822 15.4453C9.6877 13.9282 7.39259 11.6339 5.87453 8.83986L7.47789 7.22639C7.94049 6.79747 8.10667 6.14512 7.90905 5.51747C7.5023 4.28048 7.2961 2.98636 7.29825 1.68421C7.29825 0.755649 6.5426 0 5.61404 0H1.68421C0.755649 0 0 0.755649 0 1.68421C0 12.5193 8.81404 21.3333 19.6491 21.3333ZM1.68421 1.12281H5.61404C5.76293 1.12281 5.90572 1.18195 6.01101 1.28724C6.11629 1.39252 6.17544 1.53532 6.17544 1.68421C6.17544 3.11804 6.4 4.52604 6.84126 5.86105C6.87368 5.95793 6.87747 6.0621 6.85218 6.16108C6.82689 6.26006 6.77359 6.34964 6.69867 6.41909L4.50246 8.62653C6.34049 12.2509 9.05544 14.9659 12.6967 16.8196L14.8851 14.6302C14.9597 14.5563 15.0531 14.5041 15.1551 14.4792C15.2572 14.4542 15.3641 14.4575 15.4644 14.4887C16.8073 14.9333 18.2153 15.1579 19.6491 15.1579C19.9579 15.1579 20.2105 15.4105 20.2105 15.7193V19.6491C20.2105 19.9579 19.9579 20.2105 19.6491 20.2105C9.43383 20.2105 1.12281 11.8995 1.12281 1.68421C1.12281 1.53532 1.18195 1.39252 1.28724 1.28724C1.39252 1.18195 1.53532 1.12281 1.68421 1.12281Z" fill="#F7F9FA"/>
</svg>
