<svg width="27" height="26" viewBox="0 0 27 26" fill="none" xmlns="http://www.w3.org/2000/svg">
<path d="M4.33325 0C3.27239 0 2.25497 0.421427 1.50482 1.17157C0.754679 1.92172 0.333252 2.93913 0.333252 4V21.3333C0.333252 22.3942 0.754679 23.4116 1.50482 24.1618C2.25497 24.9119 3.27239 25.3333 4.33325 25.3333H21.6666C22.7274 25.3333 23.7449 24.9119 24.495 24.1618C25.2452 23.4116 25.6666 22.3942 25.6666 21.3333V18.9733C26.085 18.5991 26.42 18.1409 26.6498 17.6286C26.8795 17.1163 26.9988 16.5614 26.9999 16V9.33333C26.9988 8.77191 26.8795 8.21701 26.6498 7.70474C26.42 7.19246 26.085 6.73428 25.6666 6.36V4C25.6666 2.93913 25.2452 1.92172 24.495 1.17157C23.7449 0.421427 22.7274 0 21.6666 0H4.33325ZM4.33325 1.33333H21.6666C22.3738 1.33333 23.0521 1.61428 23.5522 2.11438C24.0523 2.61448 24.3333 3.29276 24.3333 4V5.56533C23.9052 5.41283 23.4543 5.33437 22.9999 5.33333H14.9999C13.9391 5.33333 12.9216 5.75476 12.1715 6.50491C11.4213 7.25505 10.9999 8.27247 10.9999 9.33333V16C10.9999 17.0609 11.4213 18.0783 12.1715 18.8284C12.9216 19.5786 13.9391 20 14.9999 20H22.9999C23.4543 19.999 23.9052 19.9205 24.3333 19.768V21.3333C24.3333 22.0406 24.0523 22.7189 23.5522 23.219C23.0521 23.719 22.3738 24 21.6666 24H4.33325C3.62601 24 2.94773 23.719 2.44763 23.219C1.94754 22.7189 1.66659 22.0406 1.66659 21.3333V4C1.66659 3.29276 1.94754 2.61448 2.44763 2.11438C2.94773 1.61428 3.62601 1.33333 4.33325 1.33333ZM14.9999 6.66667H22.9999C23.7072 6.66667 24.3854 6.94762 24.8855 7.44772C25.3856 7.94781 25.6666 8.62609 25.6666 9.33333V16C25.6666 16.7072 25.3856 17.3855 24.8855 17.8856C24.3854 18.3857 23.7072 18.6667 22.9999 18.6667H14.9999C14.2927 18.6667 13.6144 18.3857 13.1143 17.8856C12.6142 17.3855 12.3333 16.7072 12.3333 16V9.33333C12.3333 8.62609 12.6142 7.94781 13.1143 7.44772C13.6144 6.94762 14.2927 6.66667 14.9999 6.66667ZM18.3333 9.33333C17.4492 9.33333 16.6013 9.68452 15.9762 10.3096C15.3511 10.9348 14.9999 11.7826 14.9999 12.6667C14.9999 13.5507 15.3511 14.3986 15.9762 15.0237C16.6013 15.6488 17.4492 16 18.3333 16C19.2173 16 20.0652 15.6488 20.6903 15.0237C21.3154 14.3986 21.6666 13.5507 21.6666 12.6667C21.6666 11.7826 21.3154 10.9348 20.6903 10.3096C20.0652 9.68452 19.2173 9.33333 18.3333 9.33333ZM18.3333 10.6667C18.5959 10.6667 18.856 10.7184 19.0986 10.8189C19.3413 10.9194 19.5617 11.0667 19.7475 11.2525C19.9332 11.4382 20.0805 11.6586 20.181 11.9013C20.2815 12.144 20.3333 12.404 20.3333 12.6667C20.3333 12.9293 20.2815 13.1894 20.181 13.432C20.0805 13.6747 19.9332 13.8952 19.7475 14.0809C19.5617 14.2666 19.3413 14.4139 19.0986 14.5144C18.856 14.6149 18.5959 14.6667 18.3333 14.6667C17.8028 14.6667 17.2941 14.456 16.919 14.0809C16.544 13.7058 16.3333 13.1971 16.3333 12.6667C16.3333 12.1362 16.544 11.6275 16.919 11.2525C17.2941 10.8774 17.8028 10.6667 18.3333 10.6667Z" fill="#F7F9FA"/>
</svg>
